<svg width="150" height="136" viewBox="0 0 150 136" fill="none" xmlns="http://www.w3.org/2000/svg">
<path d="M133.368 72.7137L75.0648 130.457L16.7617 72.7137C12.916 68.9716 9.88688 64.4737 7.86497 59.5033C5.84306 54.5329 4.87218 49.1978 5.01348 43.8337C5.15477 38.4697 6.40518 33.1931 8.68595 28.336C10.9667 23.479 14.2285 19.1468 18.2658 15.6123C22.3031 12.0778 27.0285 9.4175 32.1444 7.79894C37.2604 6.18038 42.6561 5.63864 47.9917 6.20781C53.3273 6.77699 58.4873 8.44475 63.1466 11.1061C67.806 13.7674 71.8639 17.3647 75.0648 21.6713C78.2795 17.3959 82.3421 13.8301 86.9983 11.197C91.6545 8.56394 96.804 6.92026 102.125 6.36887C107.445 5.81749 112.823 6.37026 117.92 7.99259C123.017 9.61493 127.724 12.2719 131.747 15.7972C135.771 19.3225 139.023 23.6403 141.3 28.4803C143.578 33.3203 144.832 38.5783 144.984 43.9253C145.136 49.2723 144.183 54.5931 142.184 59.5547C140.186 64.5164 137.184 69.0121 133.368 72.7604" stroke="white" stroke-width="10" stroke-linecap="round" stroke-linejoin="round"/>
</svg>
