<svg width="548" height="145" viewBox="0 0 548 145" fill="none" xmlns="http://www.w3.org/2000/svg">
<circle cx="59" cy="72" r="57" transform="rotate(1.74956 59 72)" fill="#EB0028"/>
<path d="M142.7 83.5C144.167 86.1 145.767 88.3667 147.5 90.3C149.3 92.2333 151.267 93.7333 153.4 94.8C155.533 95.8667 157.833 96.4 160.3 96.4C163.167 96.4 165.5 95.6667 167.3 94.2C169.1 92.7333 170 90.7333 170 88.2C170 86 169.433 84.2333 168.3 82.9C167.233 81.5667 165.6 80.4 163.4 79.4C161.267 78.3333 158.633 77.2 155.5 76C153.833 75.4 151.9 74.6 149.7 73.6C147.567 72.5333 145.533 71.2 143.6 69.6C141.667 67.9333 140.067 65.9333 138.8 63.6C137.533 61.2 136.9 58.3333 136.9 55C136.9 51 137.9 47.5667 139.9 44.7C141.967 41.7667 144.733 39.5333 148.2 38C151.733 36.4 155.667 35.6 160 35.6C164.467 35.6 168.3 36.3667 171.5 37.9C174.767 39.3667 177.467 41.2667 179.6 43.6C181.8 45.8667 183.5 48.2333 184.7 50.7L173.5 56.9C172.567 55.2333 171.433 53.7333 170.1 52.4C168.833 51 167.367 49.9 165.7 49.1C164.033 48.2333 162.133 47.8 160 47.8C157.2 47.8 155.1 48.4667 153.7 49.8C152.3 51.0667 151.6 52.5667 151.6 54.3C151.6 56.0333 152.167 57.5667 153.3 58.9C154.433 60.1667 156.167 61.4 158.5 62.6C160.833 63.7333 163.767 64.9 167.3 66.1C169.567 66.9 171.733 67.9 173.8 69.1C175.933 70.3 177.833 71.7667 179.5 73.5C181.233 75.1667 182.567 77.1667 183.5 79.5C184.5 81.7667 185 84.4 185 87.4C185 90.8 184.333 93.8333 183 96.5C181.667 99.1667 179.833 101.433 177.5 103.3C175.167 105.1 172.533 106.467 169.6 107.4C166.733 108.4 163.7 108.9 160.5 108.9C156.233 108.9 152.233 108.1 148.5 106.5C144.833 104.833 141.633 102.6 138.9 99.8C136.167 97 134.033 93.9667 132.5 90.7L142.7 83.5ZM285.167 91.1L286.867 79.8H320.467L322.167 91.1H285.167ZM303.467 59.7L292.967 83.8L293.267 87L284.067 107H267.967L303.467 32.9L338.967 107H322.767L313.767 87.6L313.967 84L303.467 59.7ZM355.034 72C355.034 76.6 356.067 80.6333 358.134 84.1C360.267 87.5 363.034 90.1333 366.434 92C369.834 93.8 373.534 94.7 377.534 94.7C380.867 94.7 383.834 94.2667 386.434 93.4C389.034 92.5333 391.367 91.3667 393.434 89.9C395.567 88.4333 397.4 86.8333 398.934 85.1V101.2C396.067 103.467 392.934 105.233 389.534 106.5C386.2 107.767 381.967 108.4 376.834 108.4C371.5 108.4 366.534 107.533 361.934 105.8C357.4 104.067 353.434 101.567 350.034 98.3C346.7 95.0333 344.1 91.2 342.234 86.8C340.434 82.3333 339.534 77.4 339.534 72C339.534 66.6 340.434 61.7 342.234 57.3C344.1 52.8333 346.7 48.9667 350.034 45.7C353.434 42.4333 357.4 39.9333 361.934 38.2C366.534 36.4667 371.5 35.6 376.834 35.6C381.967 35.6 386.2 36.2333 389.534 37.5C392.934 38.7667 396.067 40.5333 398.934 42.8V58.9C397.4 57.1667 395.567 55.5667 393.434 54.1C391.367 52.6333 389.034 51.4667 386.434 50.6C383.834 49.7333 380.867 49.3 377.534 49.3C373.534 49.3 369.834 50.2333 366.434 52.1C363.034 53.9 360.267 56.5 358.134 59.9C356.067 63.3 355.034 67.3333 355.034 72ZM413.163 37H427.863V107H413.163V37ZM452.763 37H469.763L440.763 69.8L471.263 107H453.863L423.663 70.2L452.763 37ZM485.102 72C485.102 76.4667 486.036 80.4333 487.902 83.9C489.769 87.3667 492.336 90.1 495.602 92.1C498.869 94.1 502.669 95.1 507.002 95.1C511.336 95.1 515.136 94.1 518.402 92.1C521.669 90.1 524.202 87.3667 526.002 83.9C527.869 80.4333 528.802 76.4667 528.802 72C528.802 67.5333 527.902 63.5667 526.102 60.1C524.302 56.6333 521.769 53.9 518.502 51.9C515.236 49.9 511.402 48.9 507.002 48.9C502.669 48.9 498.869 49.9 495.602 51.9C492.336 53.9 489.769 56.6333 487.902 60.1C486.036 63.5667 485.102 67.5333 485.102 72ZM470.002 72C470.002 66.6667 470.936 61.8 472.802 57.4C474.669 52.9333 477.269 49.0667 480.602 45.8C483.936 42.5333 487.836 40.0333 492.302 38.3C496.836 36.5 501.736 35.6 507.002 35.6C512.336 35.6 517.236 36.5 521.702 38.3C526.169 40.0333 530.069 42.5333 533.402 45.8C536.802 49.0667 539.402 52.9333 541.202 57.4C543.069 61.8 544.002 66.6667 544.002 72C544.002 77.2667 543.069 82.1667 541.202 86.7C539.402 91.1667 536.836 95.0667 533.502 98.4C530.236 101.733 526.336 104.333 521.802 106.2C517.336 108 512.402 108.9 507.002 108.9C501.602 108.9 496.636 108 492.102 106.2C487.636 104.333 483.736 101.733 480.402 98.4C477.069 95.0667 474.502 91.1667 472.702 86.7C470.902 82.1667 470.002 77.2667 470.002 72Z" fill="black"/>
<path d="M246.459 37H260.259V110.5L210.459 63.6V107H196.659V33.5L246.459 80.4V37Z" fill="#EB0028"/>
<path d="M53.8652 72.1536C53.885 71.5074 54.1606 70.8956 54.6314 70.4527C55.1022 70.0098 55.7297 69.772 56.3758 69.7918C57.0219 69.8115 57.6494 69.5738 58.1202 69.1308C58.591 68.6879 58.8666 68.0761 58.8863 67.43C58.9061 66.7839 58.6683 66.1564 58.2254 65.6855C57.7825 65.2147 57.1707 64.9391 56.5246 64.9194C54.5863 64.8602 52.7038 65.5734 51.2914 66.9022C49.8789 68.2309 49.0521 70.0664 48.9929 72.0047C48.9732 72.6509 49.2109 73.2783 49.6539 73.7492C50.0968 74.22 50.7086 74.4956 51.3547 74.5153C52.0008 74.5351 52.6283 74.2973 53.0991 73.8544C53.5699 73.4115 53.8455 72.7997 53.8652 72.1536ZM61.3786 39.0572C51.254 38.748 42.319 44.4087 37.2696 52.9322C36.4469 54.3214 35.2108 55.5126 33.7289 56.4492C27.3999 60.4566 23.1136 67.7354 22.8586 76.0834C22.4671 88.9011 31.7766 99.9277 44.0645 100.303C45.1191 100.335 46.1555 100.289 47.1737 100.164C50.0273 99.8145 52.9199 100.333 55.4741 101.653C59.0688 103.56 63.1232 104.43 67.1837 104.164C71.2443 103.899 75.1511 102.51 78.4672 100.151C81.7833 97.7926 84.3781 94.5582 85.9613 90.8094C87.5445 87.0607 88.0537 82.9455 87.4321 78.9239C87.236 77.76 87.2459 76.5706 87.4614 75.4101C87.8095 73.6629 88.0117 71.8689 88.068 70.0283C88.5694 53.6115 76.84 39.5295 61.3786 39.0572ZM72.5175 73.5361C72.4556 75.5623 71.9953 77.5565 71.1627 79.4048C70.3301 81.253 69.1417 82.9192 67.6652 84.3082C66.1888 85.6972 64.4532 86.7818 62.5576 87.5C60.662 88.2182 58.6435 88.556 56.6173 88.4941C54.5912 88.4322 52.597 87.9718 50.7488 87.1393C48.9006 86.3067 47.2344 85.1182 45.8455 83.6417C44.4565 82.1652 43.372 80.4296 42.6538 78.534C41.9356 76.6383 41.5978 74.6198 41.6597 72.5936C41.7847 68.5015 43.5301 64.6266 46.512 61.8215C49.4938 59.0163 53.4679 57.5106 57.5599 57.6356C61.6519 57.7606 65.5266 59.506 68.3317 62.4879C71.1368 65.4699 72.6425 69.444 72.5175 73.5361Z" fill="white"/>
</svg>
