<svg width="141" height="152" viewBox="0 0 141 152" fill="none" xmlns="http://www.w3.org/2000/svg">
<path d="M103.555 46.6665H113.219C121.887 46.6665 129.108 53.3108 129.828 61.9493L135.384 128.616C136.194 138.332 128.525 146.666 118.775 146.666H21.6678C11.9171 146.666 4.24902 138.332 5.05872 128.616L10.6143 61.9493C11.3341 53.3108 18.5552 46.6665 27.2234 46.6665H36.8878M103.555 46.6665H36.8878M103.555 46.6665V38.3335C103.555 29.4928 100.043 21.0143 93.791 14.7631C87.5402 8.5119 79.0621 5 70.2213 5C61.3805 5 52.9023 8.5119 46.651 14.7631C40.3997 21.0143 36.8878 29.4928 36.8878 38.3335V46.6665M103.555 46.6665V80M36.8878 46.6665V80" stroke="black" stroke-width="10" stroke-linecap="round" stroke-linejoin="round"/>
</svg>
