<svg width="160" height="160" viewBox="0 0 160 160" fill="none" xmlns="http://www.w3.org/2000/svg">
<g clip-path="url(#clip0_2_2)">
<mask id="mask0_2_2" style="mask-type:luminance" maskUnits="userSpaceOnUse" x="0" y="0" width="160" height="160">
<path d="M160 0H0V160H160V0Z" fill="white"/>
</mask>
<g mask="url(#mask0_2_2)">
<path d="M5 129.895C5 136.525 7.63392 142.884 12.3224 147.573C14.6438 149.894 17.3998 151.736 20.4329 152.992C23.466 154.248 26.717 154.895 30 154.895H130C136.631 154.895 142.989 152.261 147.678 147.573C152.366 142.884 155 136.525 155 129.895H5Z" fill="#E29460"/>
<path d="M130 149.895H30C24.2376 149.895 18.6521 147.904 14.1885 144.26C9.72502 140.615 6.65749 135.541 5.505 129.895H5C5 136.525 7.63392 142.884 12.3224 147.573C14.6438 149.894 17.3998 151.736 20.4329 152.992C23.466 154.248 26.717 154.895 30 154.895H130C136.631 154.895 142.989 152.261 147.678 147.573C152.366 142.884 155 136.525 155 129.895H154.495C153.343 135.541 150.275 140.615 145.811 144.26C141.348 147.904 135.762 149.895 130 149.895Z" fill="black"/>
<path d="M150 94.8949H10C7.34785 94.8949 4.8043 95.9485 2.92893 97.8239C1.05357 99.6992 0 102.242 0 104.895C0 107.547 1.05357 110.091 2.92893 111.966C4.8043 113.841 7.34785 114.895 10 114.895H150C152.652 114.895 155.196 113.841 157.071 111.966C158.946 110.091 160 107.547 160 104.895C160 102.242 158.946 99.6992 157.071 97.8239C155.196 95.9485 152.652 94.8949 150 94.8949Z" fill="#EF4D4D"/>
<path d="M150 109.895H10C7.78797 109.89 5.64005 109.151 3.89347 107.794C2.14689 106.437 0.900515 104.538 0.35 102.395C0.145 103.205 0 104.03 0 104.895C0 107.547 1.05357 110.091 2.92893 111.966C4.8043 113.841 7.34785 114.895 10 114.895H150C152.652 114.895 155.196 113.841 157.071 111.966C158.946 110.091 160 107.547 160 104.895C160 104.025 159.855 103.2 159.65 102.395C159.1 104.538 157.854 106.437 156.107 107.795C154.36 109.152 152.212 109.891 150 109.895Z" fill="black"/>
<path d="M150 54.8949H10C7.34785 54.8949 4.8043 55.9484 2.92893 57.8238C1.05357 59.6992 0 62.2424 0 64.8948C0 67.5472 1.05357 70.0905 2.92893 71.9658C4.8043 73.8412 7.34785 74.8948 10 74.8948H150C152.652 74.8948 155.196 73.8412 157.071 71.9658C158.946 70.0905 160 67.5472 160 64.8948C160 62.2424 158.946 59.6992 157.071 57.8238C155.196 55.9484 152.652 54.8949 150 54.8949Z" fill="#EF4D4D"/>
<path d="M150 69.8952H10C7.78797 69.8902 5.64005 69.151 3.89347 67.7941C2.14689 66.4366 0.900515 64.5377 0.35 62.395C0.145 63.2049 0 64.0297 0 64.8949C0 67.5473 1.05357 70.0905 2.92893 71.9659C4.8043 73.8412 7.34785 74.8949 10 74.8949H150C152.652 74.8949 155.196 73.8412 157.071 71.9659C158.946 70.0905 160 67.5473 160 64.8949C160 64.0248 159.855 63.2 159.65 62.395C159.1 64.5377 157.854 66.4372 156.107 67.7947C154.36 69.1522 152.212 69.8915 150 69.8952Z" fill="black"/>
<path d="M5 119.895H155V124.895H5V119.895Z" fill="#469FCC"/>
<path d="M5 79.8951H155V89.8951H5V79.8951Z" fill="#EDD87E"/>
<path d="M63.2852 119.54L43.5352 139.29C43.0713 139.755 42.5203 140.123 41.9136 140.375C41.307 140.626 40.6569 140.756 40.0002 140.756C39.3435 140.756 38.6933 140.626 38.0867 140.375C37.4801 140.123 36.9291 139.755 36.4652 139.29L16.7152 119.54H12.9302L36.8202 143.43C37.2841 143.895 37.8352 144.264 38.4417 144.515C39.0483 144.766 39.6985 144.896 40.3552 144.896C41.0119 144.896 41.6621 144.766 42.2687 144.515C42.8752 144.264 43.4262 143.895 43.8902 143.43L67.78 119.54H63.2852Z" fill="black"/>
<path d="M36.4653 139.29C36.9293 139.755 37.4803 140.123 38.0869 140.375C38.6934 140.626 39.3437 140.756 40.0004 140.756C40.657 140.756 41.3073 140.626 41.9138 140.375C42.5204 140.123 43.0714 139.755 43.5354 139.29L63.2852 119.54H16.7153L36.4653 139.29ZM89.1401 119.54L103.535 133.935C103.999 134.4 104.55 134.768 105.157 135.02C105.763 135.271 106.414 135.401 107.071 135.401C107.727 135.401 108.377 135.271 108.984 135.02C109.59 134.768 110.142 134.4 110.606 133.935L125.001 119.54H89.1401Z" fill="#EDD87E"/>
<path d="M125 119.54L110.605 133.935C110.141 134.399 109.59 134.768 108.984 135.02C108.377 135.271 107.727 135.401 107.07 135.401C106.413 135.401 105.763 135.271 105.157 135.02C104.55 134.768 103.999 134.399 103.535 133.935L89.1398 119.54H85.355L103.89 138.075C104.354 138.539 104.905 138.908 105.511 139.16C106.118 139.411 106.768 139.541 107.425 139.541C108.082 139.541 108.732 139.411 109.338 139.16C109.945 138.908 110.496 138.539 110.96 138.075L129.495 119.54H125ZM145 59.8949C136 59.8949 130 49.8949 130 49.8949C130 49.8949 120 59.8949 105 59.8949C90 59.8949 80 49.8949 80 49.8949C80 49.8949 74 59.8949 64.9997 59.8949C56 59.8949 50 49.8949 50 49.8949C50 49.8949 40 59.8949 25 59.8949C10 59.8949 0 49.8949 0 49.8949V54.8949C0 54.8949 10 64.8948 25 64.8948C40 64.8948 50 54.8949 50 54.8949C50 54.8949 56 64.8948 64.9997 64.8948C74 64.8948 80 54.8949 80 54.8949C80 54.8949 90 64.8948 105 64.8948C120 64.8948 130 54.8949 130 54.8949C130 54.8949 136 64.8948 145 64.8948C154 64.8948 160 54.8949 160 54.8949V49.8949C160 49.8949 154 59.8949 145 59.8949Z" fill="black"/>
<path d="M80.0204 4.8949C40.0205 4.8949 5.02051 19.8949 5.02051 39.8949H155.021C155.021 19.8949 120.02 4.8949 80.0204 4.8949Z" fill="#E29460"/>
<path d="M110.021 22.3949C110.021 23.0579 110.284 23.6938 110.753 24.1626C111.222 24.6315 111.857 24.8949 112.52 24.8949C113.184 24.8949 113.82 24.6315 114.288 24.1626C114.757 23.6938 115.021 23.0579 115.021 22.3949C115.021 21.7319 114.757 21.096 114.288 20.6271C113.82 20.1583 113.184 19.8949 112.52 19.8949C111.857 19.8949 111.222 20.1583 110.753 20.6271C110.284 21.096 110.021 21.7319 110.021 22.3949Z" fill="black"/>
<path d="M90.0205 17.3949C90.0205 18.0579 90.2841 18.6938 90.7529 19.1626C91.2217 19.6315 91.8574 19.8949 92.5203 19.8949C93.1839 19.8949 93.8196 19.6315 94.2884 19.1626C94.7572 18.6938 95.0208 18.0579 95.0208 17.3949C95.0208 16.7319 94.7572 16.096 94.2884 15.6271C93.8196 15.1583 93.1839 14.8949 92.5203 14.8949C91.8574 14.8949 91.2217 15.1583 90.7529 15.6271C90.2841 16.096 90.0205 16.7319 90.0205 17.3949Z" fill="black"/>
<path d="M65.021 27.3949C65.021 28.0579 65.2839 28.6938 65.7528 29.1626C66.2216 29.6315 66.8579 29.8949 67.5208 29.8949C68.1838 29.8949 68.8194 29.6315 69.2883 29.1626C69.7571 28.6938 70.0207 28.0579 70.0207 27.3949C70.0207 26.7319 69.7571 26.096 69.2883 25.6271C68.8194 25.1583 68.1838 24.8949 67.5208 24.8949C66.8579 24.8949 66.2216 25.1583 65.7528 25.6271C65.2839 26.096 65.021 26.7319 65.021 27.3949Z" fill="black"/>
<path d="M70.0205 17.3949C70.0205 18.0579 70.2841 18.6938 70.7529 19.1626C71.2217 19.6315 71.8574 19.8949 72.5204 19.8949C73.1839 19.8949 73.8196 19.6315 74.2884 19.1626C74.7573 18.6938 75.0208 18.0579 75.0208 17.3949C75.0208 16.7319 74.7573 16.096 74.2884 15.6271C73.8196 15.1583 73.1839 14.8949 72.5204 14.8949C71.8574 14.8949 71.2217 15.1583 70.7529 15.6271C70.2841 16.096 70.0205 16.7319 70.0205 17.3949Z" fill="black"/>
<path d="M40.0205 17.3949C40.0205 18.0579 40.2839 18.6938 40.7527 19.1626C41.2216 19.6315 41.8575 19.8949 42.5205 19.8949C43.1835 19.8949 43.8195 19.6315 44.2883 19.1626C44.7571 18.6938 45.0205 18.0579 45.0205 17.3949C45.0205 16.7319 44.7571 16.096 44.2883 15.6271C43.8195 15.1583 43.1835 14.8949 42.5205 14.8949C41.8575 14.8949 41.2216 15.1583 40.7527 15.6271C40.2839 16.096 40.0205 16.7319 40.0205 17.3949Z" fill="black"/>
<path d="M135 34.8949C120 34.8949 110 44.8949 110 44.8949C110 44.8949 104 34.8949 95.0003 34.8949C86 34.8949 80 44.8949 80 44.8949C80 44.8949 70 34.8949 55 34.8949C40 34.8949 30 44.8949 30 44.8949C30 44.8949 24 34.8949 15 34.8949C6 34.8949 0 44.8949 0 44.8949V49.8949C0 49.8949 10 59.8949 25 59.8949C40 59.8949 50 49.8949 50 49.8949C50 49.8949 56 59.8949 64.9997 59.8949C74 59.8949 80 49.8949 80 49.8949C80 49.8949 90 59.8949 105 59.8949C120 59.8949 130 49.8949 130 49.8949C130 49.8949 136 59.8949 145 59.8949C154 59.8949 160 49.8949 160 49.8949V44.8949C160 44.8949 150 34.8949 135 34.8949Z" fill="#3AAD73"/>
</g>
</g>
<defs>
<clipPath id="clip0_2_2">
<rect width="160" height="160" fill="white"/>
</clipPath>
</defs>
</svg>
