<svg width="200" height="200" viewBox="0 0 200 200" fill="none" xmlns="http://www.w3.org/2000/svg">
<g clip-path="url(#clip0_2_80)">
<path d="M116.311 56.6321C104.554 56.4282 90.1945 60.2105 80.4254 69.4376C80.2111 69.6265 80.0182 69.8376 79.8519 70.0718C76.1072 69.0326 72.2144 68.4348 68.2392 68.4072C53.3773 68.3011 39.4025 75.6149 30.8797 87.9205C30.634 88.252 30.4454 88.6299 30.3214 89.0249C27.0202 89.9287 23.8473 91.1724 20.9927 92.8868C14.3149 96.8989 8.36989 104.569 3.41058 111.795C-0.1962 117.051 -0.881905 123.211 1.06768 128.433C3.0168 133.656 7.47624 137.873 13.4174 139.869C13.5141 139.869 13.6122 139.944 13.7117 139.959C13.7117 139.964 13.7117 139.957 13.7871 139.959C14.0343 140.034 14.2871 140.056 14.5417 140.065C14.5417 140.067 14.5417 140.06 14.6172 140.065C31.1844 144.087 48.4204 144.487 65.1221 141.036L167.356 128.157C177.092 126.929 186.552 124.045 195.328 119.623C195.835 119.366 196.278 118.997 196.624 118.548C200.317 113.718 200.262 108.241 199.748 103.296C198.31 89.4481 189.781 77.5492 178.099 70.5641C172.261 67.0724 166.084 65.126 159.75 64.5055C154.045 63.9475 148.209 64.5067 142.361 65.9647C136.397 61.121 129.129 57.9376 121.212 56.9757C119.499 56.7564 117.766 56.7343 116.31 56.6359L116.311 56.6321Z" fill="#464C63"/>
<path d="M116.236 64.2198C117.648 64.2198 118.989 64.3027 120.245 64.4541C132.511 65.942 142.741 73.5011 147.361 85.0574C148.099 87.0066 150.278 87.9878 152.226 87.2497C154.175 86.511 155.157 84.332 154.418 82.3845C154.4 82.3364 154.381 82.2895 154.361 82.2425C152.921 78.6397 151.002 75.3519 148.717 72.4127C157.748 71.0116 166.161 72.2309 174.154 77.0099C183.98 82.8861 191.012 92.8303 192.178 104.053C192.616 108.271 192.352 110.678 190.674 113.22C182.983 116.945 174.815 119.579 166.343 120.647L63.8145 133.571C63.7151 133.592 63.6173 133.618 63.5201 133.647C47.7149 136.911 31.3887 136.556 15.7273 132.659C11.7688 131.302 9.20187 128.725 8.10773 125.791C7.00469 122.834 7.23624 119.488 9.59657 116.05C14.3097 109.182 20.3113 102.07 24.8349 99.3524C30.7303 95.811 37.3445 94.1652 44.5387 95.9779C57.4173 99.2226 60.6173 112.19 60.6173 112.19C61.0919 114.219 63.1217 115.48 65.1504 115.005C67.1797 114.53 68.4399 112.501 67.9654 110.472C67.9576 110.44 67.9499 110.408 67.9416 110.377C67.9416 110.377 63.5941 93.006 46.3803 88.6685C44.4458 88.1784 42.5457 87.9292 40.6621 87.8132C47.7852 80.2408 57.6841 75.8779 68.1477 75.9497C80.5068 76.0331 92.051 82.2502 99.0377 92.6337C100.081 94.4381 102.388 95.0552 104.192 94.0127C105.997 92.9707 106.614 90.6624 105.572 88.858C105.486 88.7105 105.391 88.569 105.287 88.4337C100.81 81.7817 94.7206 76.6011 87.7786 73.1508C95.6095 67.1105 107.219 64.1657 116.237 64.2198H116.236Z" fill="#FFB900"/>
</g>
<defs>
<clipPath id="clip0_2_80">
<rect width="200" height="200" fill="white"/>
</clipPath>
</defs>
</svg>
