<svg width="200" height="200" viewBox="0 0 200 200" fill="none" xmlns="http://www.w3.org/2000/svg">
<g clip-path="url(#clip0_2_44)">
<mask id="mask0_2_44" style="mask-type:luminance" maskUnits="userSpaceOnUse" x="0" y="0" width="200" height="200">
<path d="M200 0H0V200H200V0Z" fill="white"/>
</mask>
<g mask="url(#mask0_2_44)">
<path d="M100 194.445C155.229 194.445 200 169.571 200 138.889C200 108.206 155.229 83.333 100 83.333C44.7715 83.333 0 108.206 0 138.889C0 169.571 44.7715 194.445 100 194.445Z" fill="#939598"/>
<path d="M100 183.333C155.229 183.333 200 158.46 200 127.778C200 97.0955 155.229 72.2223 100 72.2223C44.7715 72.2223 0 97.0955 0 127.778C0 158.46 44.7715 183.333 100 183.333Z" fill="#F1F2F2"/>
<path d="M100.001 167.9C145.411 167.9 182.222 148.969 182.222 125.617C182.222 102.264 145.411 83.333 100.001 83.333C54.5904 83.333 17.7783 102.264 17.7783 125.617C17.7783 148.969 54.5904 167.9 100.001 167.9Z" fill="white"/>
<path d="M44.4443 155.555C44.4443 138.645 46.7611 115.511 44.6777 78.4724C48.0166 70.8223 78.8218 64.7388 81.4832 57.4055C88.633 37.7055 74.7668 24.5388 88.8887 11.111C100.278 0.283274 116.666 -5.9757e-05 122.222 16.6666C133.333 5.5555 155.556 11.111 155.556 27.7777C177.778 22.2222 188.889 44.4443 172.222 61.111C172.222 66.6666 166.666 111.111 166.666 122.222C166.666 133.333 165.511 132.178 137.733 137.733C109.956 143.289 44.4443 155.555 44.4443 155.555Z" fill="#E1E8ED"/>
<path d="M44.4443 150V83.3331C44.4443 83.3331 161.111 44.4443 161.111 69.6777V127.778L44.4443 150Z" fill="#FFAC33"/>
<path d="M44.4443 144.445V88.8885C44.4443 88.8885 113.195 65.5109 155.556 66.6665V122.222L44.4443 144.445Z" fill="#FFD983"/>
<path d="M44.4443 116.667V111.111L161.111 88.8892V94.4446L44.4443 116.667Z" fill="#FFAC33"/>
<path d="M44.4443 77.7776L94.4441 27.7778C105.556 27.7778 138.889 33.3334 155.556 55.5556L44.4443 77.7776Z" fill="#E1E8ED"/>
<path d="M166.666 55.5557C172.222 50.0001 172.222 27.7779 149.999 33.3335C149.999 27.7779 138.889 11.1113 122.222 22.2224C122.222 16.6668 94.4441 11.1113 88.8887 22.2224C144.444 38.889 166.666 55.5557 166.666 55.5557Z" fill="white"/>
<path d="M99.7668 58.1C89.5835 56.9444 75.2281 52.0833 78.0058 38.6555C80.7835 25.2278 91.7501 11.5389 98.8393 7.86668C105.094 4.62778 111.761 6.99999 116.667 25.9278C119.905 38.4278 131.944 54.4 107.406 57.8723C104.862 57.8723 99.7668 58.1 99.7668 58.1Z" fill="#DD2E44"/>
<path d="M102.083 28.0112C101.652 28.012 101.226 27.912 100.841 27.719C100.455 27.5261 100.12 27.2457 99.8611 26.9L97.0834 23.1944C96.6416 22.6051 96.4521 21.8643 96.5559 21.135C96.6604 20.4057 97.05 19.7476 97.6395 19.3056C98.2284 18.8636 98.9691 18.6737 99.6988 18.7779C100.428 18.8821 101.086 19.2718 101.528 19.8611L104.306 23.5667C104.615 23.9794 104.804 24.4701 104.85 24.9839C104.897 25.4977 104.799 26.0142 104.568 26.4756C104.338 26.937 103.983 27.3251 103.544 27.5963C103.105 27.8675 102.6 28.0112 102.083 28.0112ZM88.6611 47.4556C88.2367 47.4557 87.8179 47.3586 87.4367 47.1715C87.0556 46.9845 86.7225 46.7127 86.4632 46.3769C86.2033 46.0411 86.0242 45.6502 85.9392 45.2343C85.8542 44.8184 85.8653 44.3886 85.9726 43.9778L87.3615 38.6556C87.565 37.9627 88.0305 37.3763 88.6597 37.0209C89.2883 36.6654 90.0305 36.5689 90.7294 36.7517C91.4284 36.9346 92.0284 37.3824 92.4026 38.0002C92.7768 38.618 92.8953 39.3572 92.7336 40.0611L91.3448 45.3834C91.1887 45.9765 90.8409 46.5015 90.3559 46.8763C89.8702 47.2512 89.2744 47.4549 88.6611 47.4556ZM112.961 47.9167C112.45 47.9188 111.948 47.7783 111.511 47.5112L107.345 44.9667C106.752 44.5653 106.337 43.9511 106.186 43.2517C106.034 42.5523 106.158 41.8215 106.531 41.2109C106.904 40.6003 107.499 40.1569 108.19 39.9728C108.881 39.7887 109.617 39.8781 110.244 40.2222L114.412 42.7667C114.925 43.0846 115.322 43.5611 115.541 44.1241C115.759 44.6872 115.789 45.3062 115.626 45.8877C115.462 46.4693 115.113 46.9818 114.633 47.3477C114.152 47.7138 113.566 47.9135 112.961 47.9167Z" fill="#F4ABBA"/>
</g>
</g>
<defs>
<clipPath id="clip0_2_44">
<rect width="200" height="200" fill="white"/>
</clipPath>
</defs>
</svg>
