<svg width="200" height="200" viewBox="0 0 200 200" fill="none" xmlns="http://www.w3.org/2000/svg">
<g clip-path="url(#clip0_2_38)">
<path d="M95.0342 185.936H54.9795V191.423H95.0342V185.936Z" fill="#EF8829"/>
<path d="M14.1724 130.518C14.8604 144.784 19.2225 157.67 26.6188 167.44C31.9126 172.443 38.2297 176.059 45.4763 178.803H98.3075C118.676 171.67 131.83 153.014 134.844 130.518H14.1724ZM45.0587 166.599C44.2785 167.861 42.9276 168.555 41.5454 168.555C40.8058 168.555 40.0569 168.356 39.3803 167.939C28.3193 161.102 20.6985 150.161 17.3421 136.296C16.8061 134.082 18.1668 131.853 20.3808 131.317C22.5942 130.78 24.8241 132.141 25.3601 134.355C28.1942 146.064 34.5425 155.251 43.7177 160.922C45.6557 162.119 46.2559 164.661 45.0587 166.599Z" fill="#EF8829"/>
<path d="M134.954 129.394C135.011 128.902 135.065 128.408 135.114 127.911C135.065 128.407 135.012 128.903 134.954 129.394Z" fill="#EF8829"/>
<path d="M43.7184 160.922C34.5426 155.251 28.1948 146.064 25.3608 134.356C24.8248 132.141 22.5949 130.78 20.3815 131.317C18.168 131.853 16.8067 134.082 17.3428 136.296C20.6992 150.16 28.3205 161.102 39.3816 167.938C40.0581 168.356 40.8071 168.556 41.5467 168.556C42.9283 168.556 44.2792 167.861 45.0594 166.599C46.2566 164.661 45.6564 162.119 43.7184 160.922Z" fill="#3F2D20"/>
<path d="M199.885 38.7536C199.353 36.5385 197.128 35.1789 194.912 35.7056L96.3352 59.3707V47.2445L186.006 8.84331C188.101 7.94621 189.07 5.52211 188.174 3.42831C187.278 1.33396 184.853 0.362775 182.759 1.26043L96.1056 38.3684C95.5463 36.7536 94.016 35.592 92.2105 35.592C89.9327 35.592 88.0864 37.4384 88.0864 39.7165V41.8032L85.5839 42.8748C85.2383 40.9473 83.5556 39.4839 81.5284 39.4839C79.2506 39.4839 77.4037 41.3302 77.4037 43.6084V46.3782L74.9056 47.4481C74.5691 45.5085 72.8821 44.0315 70.8457 44.0315C68.5679 44.0315 66.7216 45.8778 66.7216 48.156V50.9532L64.2481 52.0121C63.9827 49.9902 62.258 48.4281 60.1628 48.4281C57.8852 48.4281 56.0383 50.2744 56.0383 52.5526V55.5276L53.4919 56.6184C53.0644 54.7968 51.4327 53.4393 49.4809 53.4393C47.2028 53.4393 45.3564 55.2857 45.3564 57.5638V60.102L33.9288 64.9957C31.8351 65.8932 30.8644 68.3173 31.7615 70.4111C32.4309 71.9759 33.9535 72.9129 35.5546 72.9129C36.0967 72.9129 36.647 72.8055 37.1765 72.579L45.3564 69.0759V71.6105L37.4816 73.5006C35.2665 74.0321 33.902 76.2586 34.4336 78.4747C34.888 80.366 36.5773 81.637 38.4413 81.637C38.7595 81.637 39.0838 81.6 39.4075 81.5222L45.3564 80.0944V115.447H4.12451C1.8469 115.447 0 117.293 0 119.572C0 135.093 3.79036 149.401 10.9612 160.949C18.0651 172.391 28.4002 180.922 40.9598 185.749V194.949C40.9598 197.228 42.8061 199.074 45.0843 199.074H98.7006C100.978 199.074 102.825 197.228 102.825 194.949V185.748C115.385 180.921 125.719 172.391 132.824 160.948C139.994 149.401 143.784 135.093 143.784 119.571C143.784 117.293 141.938 115.446 139.659 115.446H64.2877V75.5487L66.8839 74.9259C67.3765 76.6518 68.9623 77.9154 70.8457 77.9154C73.1241 77.9154 74.9704 76.0691 74.9704 73.7907V72.9845L77.429 72.3938C77.6525 74.4611 79.4019 76.0716 81.5284 76.0716C83.8062 76.0716 85.6531 74.2253 85.6531 71.9469V70.4197L88.0864 69.8352V77.716C88.0864 79.9944 89.9327 81.8407 92.2105 81.8407C94.4889 81.8407 96.3352 79.9944 96.3352 77.716V67.8555L196.837 43.728C199.052 43.1958 200.417 40.9692 199.885 38.7536ZM94.5759 190.825H49.2093V186.87H94.5759V190.825ZM45.4766 178.622C23.2771 170.838 9.61198 150.514 8.34611 123.696H135.44C134.173 150.514 120.508 170.838 98.308 178.622H45.4766ZM53.6054 65.5426L56.0383 64.5006V69.045L53.6054 69.6296V65.5426ZM53.6054 78.1136L56.0383 77.529V115.446H53.6054V78.1136ZM66.7216 66.4808L64.2877 67.0648V60.9684L66.7216 59.9265V66.4808ZM77.4037 63.9166L74.9704 64.5006V56.394L77.4037 55.3515V63.9166ZM88.0864 61.352L85.6531 61.9364V51.819L88.0864 50.7765V61.352Z" fill="#3F2D20"/>
</g>
<defs>
<clipPath id="clip0_2_38">
<rect width="200" height="200" fill="white"/>
</clipPath>
</defs>
</svg>
