<svg width="210" height="210" viewBox="0 0 210 210" fill="none" xmlns="http://www.w3.org/2000/svg">
<path d="M102.162 86.8056C43.2798 87.5598 7.35011 112.596 8.62976 146.901C9.97511 183.192 54.6822 204.537 106.756 204.487C166.064 204.438 200.041 175.694 200.796 148.641C201.682 117.092 169.953 85.9521 102.162 86.8056Z" fill="#DBDAD8"/>
<path d="M102.194 83.9676C46.7578 84.6895 12.9117 108.692 14.1094 141.57C15.3726 176.351 59.9484 197.187 106.525 196.777C160.289 196.301 194.381 169.182 195.103 143.243C195.94 112.99 166.048 83.1303 102.194 83.9676Z" fill="#F6F6F6"/>
<path d="M60.1944 112.186C60.1944 112.186 49.5303 113.876 42.771 120.143C36.0116 126.41 33.6327 142.472 44.9694 156.68C56.3061 170.887 67.6103 168.755 67.6103 168.755C67.6103 168.755 72.3843 173.939 76.6005 176.301C80.8174 178.664 86.9202 182.388 89.1188 184.587C91.3174 186.785 96.2061 191.494 99.3723 190.673C100.537 190.378 101.308 189.41 101.636 189.016C102.277 188.229 101.555 187.606 101.308 186.949C100.964 186.096 88.2822 177.138 88.2822 177.138L87.773 174.267C87.773 174.267 94.2047 176.81 97.7484 179.173C101.308 181.535 107.329 185.227 109.774 184.915C112.3 184.587 112.629 183.651 112.858 183.323C114.155 181.535 111.612 178.156 111.612 178.156C111.612 178.156 113.81 176.81 118.043 176.974C122.276 177.138 141.553 179.681 150.527 171.724C155.859 166.999 157.189 163.226 157.385 160.945C157.516 159.387 157.697 158.501 157.697 158.501C157.697 158.501 170.674 160.043 175.908 152.43C181.141 144.818 182.175 134.153 179.287 129.249C176.416 124.343 173.201 120.11 173.201 120.11C173.201 120.11 172.544 115.828 168.541 113.153C164.308 110.315 158.304 108.953 158.304 108.953L60.1944 112.186Z" fill="#FFA726"/>
<path d="M127.346 168.344C127.346 168.344 132.76 166.311 135.811 164.62C139.141 162.766 141.898 160.387 143.424 161.749C144.949 163.094 142.423 166.228 138.682 167.163C133.268 168.508 127.346 168.344 127.346 168.344Z" fill="#F6F6F6"/>
<path d="M52.8278 154.957C52.6966 155.17 54.288 157.943 57.2739 159.895C59.8497 161.569 62.4911 162.684 62.8356 161.848C63.1146 161.158 62.4255 160.945 61.0966 159.616C60.1778 158.698 59.5709 157.467 59.5709 157.467C59.5709 157.467 58.045 157.467 56.306 156.844C54.2552 156.106 52.8278 154.957 52.8278 154.957Z" fill="#F6F6F6"/>
<path d="M113.499 129.675C113.63 129.889 116.55 133.777 120.783 133.482C125.015 133.186 128.789 128.166 128.789 128.166C128.789 128.166 117.518 126.411 117.436 126.575C117.354 126.755 113.499 129.675 113.499 129.675Z" fill="#F7DF92"/>
<path d="M170.051 125.458C170.051 125.458 172.906 119.815 168.623 116.091C164.342 112.35 159.404 112.12 159.404 112.12L152.808 115.779C152.808 115.779 159.633 116.091 162.652 117.682C165.671 119.273 166.54 121.422 165.671 122.292C164.801 123.162 161.651 121.242 156.483 121.242C151.315 121.242 149.149 122.456 149.149 122.456L149.625 126.902C149.625 126.902 161.536 125.557 166.392 130.315C171.232 135.072 172.413 145.72 162.504 148.739C152.578 151.758 142.489 140.077 130.659 141.914C120.307 143.506 116.435 155.728 116.435 155.728C116.435 155.728 121.833 149.527 130.413 147.23C136.697 145.54 147.016 151.84 147.016 151.84L140.668 152.315C140.668 152.315 135.483 148.673 128.592 151.052C120.963 153.677 114.697 163.291 103.655 165.194C95.2388 166.655 84.1149 164.637 75.6163 159.075C67.1182 153.513 60.5721 143.604 59.4072 141.52C58.6197 140.093 57.4385 137.927 58.4393 137.238C59.4728 136.516 60.6869 139.207 62.0322 140.963C63.3612 142.685 76.9452 163.242 99.6022 161.454C122.801 159.633 114.368 140.405 114.368 140.405C114.368 140.405 119.88 142.111 125.147 140.651C133.104 138.436 136.369 131.758 136.369 131.758L131.054 130.889C131.054 130.889 126.295 136.451 120.012 135.975C113.744 135.499 110.316 130.807 110.316 130.807L105.148 132.874L108.725 136.844C108.725 136.844 104.754 135.647 101.178 136.599C97.6008 137.55 95.5501 139.486 97.0431 141.684C98.3888 143.67 101.752 141.537 102.769 141.208C104.442 140.651 108.889 140.897 110.398 144.868C111.907 148.837 110.873 155.433 101.423 156.466C91.9734 157.5 80.2106 153.365 71.8761 145.671C63.5416 137.977 64.5916 134.58 59.44 131.758C54.715 129.183 52.2377 132.612 52.5002 136.763C52.7791 141.356 56.6346 147.804 56.6346 147.804C56.6346 147.804 50.1213 142.882 48.9236 136.287C47.726 129.691 48.9236 126.525 52.2541 126.361C55.5846 126.197 55.9127 128.346 56.7822 127.477C57.6518 126.607 53.2877 120.57 47.2502 124.146C41.3932 127.608 43.9526 137.189 44.658 139.732C45.6752 143.456 49.3174 150.429 54.4854 152.496C58.2752 154.006 59.6533 152.89 59.6533 152.89C59.6533 152.89 66.4783 160.749 72.8438 164.489C79.1931 168.23 90.005 172.43 97.0761 176.006C104.147 179.583 109.069 183.389 110.825 183.947C112.58 184.505 114.877 182.126 113.056 179.665C111.235 177.204 109.085 176.088 107.576 175.055C106.066 174.021 100.98 171.478 100.98 171.478C100.98 171.478 103.999 171.872 106.542 171.724C109.085 171.56 110.037 171.166 110.037 171.166C110.037 171.166 109.955 174.497 112.744 175.055C115.516 175.613 118.568 174.251 123.309 174.808C130.611 175.678 145.95 175.76 151.758 166.786C157.533 157.844 151.463 153.891 151.463 153.891C151.463 153.891 166.606 158.123 173.365 147.246C180.337 135.909 170.051 125.458 170.051 125.458ZM125.311 157.385C130.479 153.923 134.335 154.891 134.335 154.891C134.335 154.891 130.807 157.582 126.066 160.191C121.144 162.898 117.075 163.751 117.075 163.751C117.633 163.505 122.178 159.485 125.311 157.385ZM139.666 168.672C130.479 171.429 119.29 168.722 119.29 168.722C119.29 168.722 128.232 165.703 133.137 162.094C138.059 158.484 145.392 154.875 148.198 158.386C150.757 161.601 144.802 167.13 139.666 168.672Z" fill="#F7DF92"/>
<path d="M132.153 139.223C132.087 139.518 137.567 138.78 143.523 141.209C149.478 143.62 162.045 150.593 166.064 142.472C169.74 135.023 163.849 130.495 158.239 129.921C154.318 129.511 151.348 129.445 149.773 130.2C147.739 131.168 147.591 134.449 150.79 134.4C153.99 134.351 162.16 133.317 160.65 139.142C159.387 144.03 149.33 137.501 144.933 136.287C137.846 134.335 132.53 137.534 132.153 139.223Z" fill="#F7DF92"/>
<path d="M156.664 156.614C157.041 157.205 157.271 158.074 157.336 158.566C157.467 159.436 157.402 160.535 157.402 160.584C157.435 160.994 175.892 164.194 181.601 147.607C184.997 137.747 180.928 128.887 178.878 125.836C176.843 122.768 173.89 119.372 173.201 119.601C172.528 119.831 173.349 123.884 174.792 126.41C176.728 129.806 181.421 139.306 177.057 147.279C170.28 159.731 156.664 156.614 156.664 156.614Z" fill="#F7DF92"/>
<path d="M65.2148 117.452C65.2805 118.945 67.6099 124.573 74.7958 133.924C79.6028 140.175 86.0838 143.555 89.5944 143.932C93.4831 144.358 93.6141 139.798 90.4972 138.6C87.3796 137.402 84 135.516 81.6866 133.383C76.8303 128.887 74.0739 123.145 74.0739 123.145L69.5296 118.059L65.2148 117.452Z" fill="#F7DF92"/>
<path d="M91.2513 147.016C85.3125 145.868 77.6668 142.997 70.1203 131.349C62.5733 119.7 59.9155 114.155 53.8944 113.022C47.8733 111.891 39.1123 115.352 35.503 125.951C33.1077 132.989 34.3053 151.823 47.7913 163.39C61.2772 174.956 65.7889 172.708 67.7907 170.543C69.1851 169.034 68.9224 166.687 68.9224 166.687C68.9224 166.687 71.6456 170.297 77.4372 174.005C81.047 176.318 86.1653 178.959 89.1675 181.47C93.6632 185.243 95.7632 187.983 98.4048 189.18C100.816 190.28 103.392 188.787 101.702 186.375C100.013 183.963 96.4851 180.83 93.2696 178.024C90.9562 176.006 87.3794 174.005 87.3794 174.005C87.3794 174.005 83.147 172.561 78.4055 170.395C70.6942 166.868 65.5428 162.044 65.067 161.88C64.6569 161.749 65.3131 166.376 61.9334 166.064C58.5537 165.736 48.0373 157.943 43.6897 149.346C39.9163 141.881 38.653 131.365 41.3272 125.852C44.5756 119.126 50.203 119.027 53.0905 119.454C56.8639 120.012 59.1936 124.671 61.9334 128.691C64.6733 132.71 74.8449 150.298 89.3316 153.037C105.082 156.007 108.215 146.688 105.967 145.638C103.72 144.588 100.406 148.788 91.2513 147.016Z" fill="#F7DF92"/>
<path d="M63.8373 102.375C63.8373 102.375 51.8935 106.198 51.6638 112.301C51.5161 116.074 61.0482 118.174 67.2989 121.505C73.5333 124.851 78.7016 132.579 87.7741 134.843C97.1256 137.156 104.41 133.58 108.331 132.563C112.252 131.545 117.978 129.527 122.473 130.184C126.969 130.84 134.86 133.219 141.111 131.841C147.345 130.463 151.119 127.132 153.317 122.949C155.072 119.618 155.352 116.156 155.352 116.156C155.352 116.156 161.881 113.679 162.307 109.397C162.866 103.884 153.743 101.03 153.743 101.03L63.8373 102.375Z" fill="#BC2A16"/>
<path d="M58.0781 104.869C58.193 105.64 62.7376 106.969 67.3805 106.854C72.0234 106.739 75.8297 107.74 78.0445 110.283C80.2593 112.826 80.1607 119.963 88.9713 123.162C98.3389 126.575 110.201 119.979 120.487 119.421C130.774 118.863 133.94 121.653 140.799 118.339C147.657 115.025 147.427 108.051 149.314 105.508C151.2 102.966 153.956 101.079 153.956 101.079C153.956 101.079 148.624 99.1599 144.752 96.9444C140.88 94.7296 136.188 91.1535 132.497 89.5289C128.625 87.8226 125.409 87.0514 123.556 86.3789C122.456 85.969 116.321 82.1134 109.79 82.343C103.261 82.5564 94.6967 85.7226 91.8093 86.8219C88.9382 87.9211 80.965 88.0359 75.6657 92.9085C70.3664 97.7817 70.3826 99.6352 65.3953 101.489C61.8352 102.818 58.0781 104.869 58.0781 104.869Z" fill="#DC4E20"/>
<path d="M123.704 106.641C123.457 109.282 125.492 111.923 129.478 111.923C133.597 111.923 135.254 108.626 134.761 106.23C134.171 103.376 131.726 102.096 128.576 102.194C126.016 102.277 123.933 104.081 123.704 106.641Z" fill="#BC2A16"/>
<path d="M117.272 112.006C115.205 112.908 114.86 115.254 115.369 116.287C115.943 117.436 117.272 118.191 119.405 117.846C120.717 117.649 122.702 115.812 122.128 113.892C121.472 111.677 119.208 111.152 117.272 112.006Z" fill="#BC2A16"/>
<path d="M76.1245 103.179C76.502 106.46 79.8323 108.708 84.8689 106.477C90.283 104.081 89.4795 99.7169 87.6745 97.4859C85.8534 95.2549 82.4576 95.3697 80.259 96.3373C77.6013 97.4859 75.6323 98.8964 76.1245 103.179Z" fill="#BC2A16"/>
<path d="M98.7332 37.275C96.9775 40.425 97.8142 42.0657 98.2247 47.1024C98.6346 52.1391 99.6191 61.4578 99.6191 61.4578C99.6191 61.4578 97.5684 61.261 97.6832 62.9508C97.798 64.6407 105.787 94.6971 105.443 94.8119C105.099 94.9267 103.819 107.313 104.639 107.74C104.656 107.74 105.886 108.56 107.625 106.477C109.528 104.18 108.823 94.2542 108.035 89.1845C107.248 84.1147 105.082 77.6838 103.868 73.9922C102.572 70.0056 102.753 67.5281 102.753 67.5281C102.753 67.5281 103.442 66.9868 103.885 66.6422C104.328 66.2977 104.804 65.4774 104.804 65.4774C104.804 65.4774 104.475 69.7429 106.116 76.0922C106.969 79.4063 109.38 85.0007 110.234 90.7105C111.432 98.7985 110.004 104.098 110.759 105.213C112.055 107.116 114.385 105.476 115.369 101.03C115.976 98.3225 114.926 86.9697 112.842 81.5394C110.759 76.1084 110.086 72.5816 109.742 69.7591C109.512 67.938 109.807 65.1328 109.807 65.1328C109.807 65.1328 110.529 66.2157 111.923 65.9696C113.023 65.7727 113.744 64.7555 113.744 64.7555L111.268 60.9328L108.478 61.3595C108.478 61.3595 107.018 59.079 106.706 57.0446C106.394 55.0102 105.509 47.0368 105.247 46.7907C105 46.5446 101.194 38.9485 101.194 38.9485L98.7332 37.275Z" fill="#FBC11A"/>
<path d="M84.8197 42.9188C84.8197 42.9188 83.7866 41.6883 81.7359 43.1484C80.4887 44.0344 80.7351 46.3805 80.9316 49.2844C81.1119 51.8602 81.8506 56.8313 82.7859 59.5219C84.164 63.4922 87.888 67.3969 91.038 67.2984C94.188 67.2 90.0697 63.2625 88.1014 57.586C86.5753 53.1727 86.1654 47.5782 85.9683 47.1352C85.7718 46.7086 84.8197 42.9188 84.8197 42.9188Z" fill="#FBC11A"/>
<path d="M70.2026 51.1548C70.3336 51.9587 71.2033 53.5993 73.1231 53.304C75.0097 53.0251 107.609 45.3962 107.609 45.3962L106.198 41.8524C106.198 41.8524 82.1463 48.0048 80.735 48.4314C79.3407 48.8579 71.6301 50.515 71.121 50.7447C70.4484 51.0564 70.2026 51.1548 70.2026 51.1548Z" fill="#ADADAD"/>
<path d="M70.9903 56.1258C70.9903 56.1258 70.8755 56.3719 71.4495 57.4383C71.6791 57.8813 72.2206 58.6196 73.927 58.3735C75.141 58.1931 111.383 52.5821 111.383 52.5821L111.071 49.7274L109.43 48.2672L70.9903 56.1258Z" fill="#ADADAD"/>
<path d="M72.7783 61.868C72.7783 61.868 72.6959 63.2461 74.0579 63.7056C75.9445 64.3454 106.493 61.6547 111.726 60.9165C116.96 60.1782 125.557 58.4883 132.973 53.6649C140.388 48.8415 142.899 38.7516 144.293 35.3883C145.687 32.0415 150.74 25.1509 157.631 23.2149C164.506 21.2625 180.042 17.4891 186.802 16.2094C193.561 14.9297 196.728 13.8961 198.187 12.1243C199.647 10.3524 199.352 7.61255 199.352 7.61255C199.352 7.61255 177.975 11.0251 177.368 11.3204C176.761 11.6321 152.037 19.2446 152.037 19.2446L136.697 34.3547L115.992 54.2883C115.992 54.2883 103.933 57.8157 103.687 57.8813C103.458 57.9305 72.7783 61.868 72.7783 61.868Z" fill="#ADADAD"/>
<path d="M192.839 5.34835C195.168 4.92179 198.17 4.62648 198.958 5.85695C199.746 7.07098 199.287 8.49837 199.287 8.49837C199.287 8.49837 177.614 14.0765 171.609 15.5038C165.604 16.9312 153.874 20.9343 151.232 22.4437C148.591 23.953 144.867 27.5132 142.439 31.0898C140.011 34.6663 136.861 44.2476 132.579 48.8249C128.296 53.4022 118.207 57.1921 110.348 58.6851C102.489 60.178 72.9253 62.6062 72.9253 62.6062C72.9253 62.6062 72.2528 60.8343 72.9091 60.539C73.5486 60.2601 79.0612 59.7515 79.0612 59.7515L108.38 55.6827C109.315 55.5351 110.594 54.8296 110.529 53.6812C110.463 52.5327 110.414 50.9741 108.773 50.8921C107.132 50.8265 73.1718 57.307 71.8915 57.2085C70.9401 57.1429 70.6288 55.3218 71.4486 55.0921C72.269 54.8624 107.247 47.8898 107.822 47.4468C108.396 47.0202 107.1 43.8046 106.246 43.5913C105.394 43.378 72.0887 51.7944 71.2845 51.9749C70.4647 52.1554 69.5619 50.5312 70.7929 49.8093C72.007 49.0874 89.5288 44.6577 92.5309 43.8046C95.5331 42.9515 117.272 38.0132 122.57 36.6515C127.87 35.2898 132.874 32.5007 135.22 30.0726C137.582 27.6444 143.866 21.771 147.656 19.7694C151.446 17.7679 164.127 12.1241 174.759 9.40069C184.225 7.00541 190.509 5.79132 192.839 5.34835Z" fill="#D0D0D2"/>
<path d="M110.004 36.8156L107.428 37.882L112.153 46.528L113.154 57.7663L113.006 63.0491C113.006 63.0491 116.944 63.9843 116.944 63.4757C116.944 62.9671 117.666 51.253 117.583 51.0398C117.518 50.8265 115.73 40.8843 115.435 40.671C115.156 40.4577 110.004 36.8156 110.004 36.8156Z" fill="#FFA724"/>
<path d="M84.4099 51.1548C84.4592 51.5813 84.6233 52.8938 86.5099 52.8282C88.3966 52.779 88.4459 51.3024 88.3966 49.9407C88.3473 48.579 88.0853 45.6258 88.0853 45.1008C88.0853 44.5758 87.9867 43.3126 88.8233 43.3126C90.3163 43.3126 91.7437 47.1352 92.236 53.0743C92.8268 60.211 91.9895 62.229 90.6113 62.7868C89.7254 63.1477 89.4142 63.0329 88.4952 63.8532C87.9374 64.3454 88.3641 66.4126 89.824 67.1508C90.3494 67.4134 91.4486 67.5118 92.3346 67.4134C96.2881 66.9704 96.9606 59.0954 96.5839 53.8454C95.9599 45.2649 94.8282 43.7227 93.1219 41.4258C90.8085 38.3251 87.7078 38.8501 86.1818 39.6868C84.6564 40.5235 83.9015 42.443 84.0163 45.0844C84.1642 47.7751 84.4099 51.1548 84.4099 51.1548Z" fill="#FCC01E"/>
<path d="M87.281 39.7853C87.0676 40.7368 88.019 41.5736 88.7577 42.197C89.4957 42.8204 90.5457 44.2478 91.2838 46.1345C91.7105 47.2337 92.3831 51.811 94.6472 51.3353C96.9112 50.8595 95.5986 45.872 94.8112 44.1986C94.0239 42.5251 93.0556 40.4415 90.7591 39.3587C89.0528 38.5712 87.4288 39.1127 87.281 39.7853Z" fill="#FDDD9C"/>
<path d="M104.475 34.2892C104.475 34.2892 102.834 33.9446 100.865 35.1587C99.881 35.7657 98.4535 37.1438 98.4535 38.2431C98.4535 39.3423 98.3056 39.7688 98.7324 40.1955C99.1591 40.622 99.914 41.1798 100.668 42.4923C101.915 44.6251 103.539 47.0696 104.015 49.7931C104.852 54.6986 104.787 58.6196 103.474 60.6541C102.161 62.6884 101.653 62.5572 101.653 62.5572L106.165 64.6079C106.165 64.6079 107.264 62.2455 107.215 61.2938C107.165 60.3423 106.903 44.2806 106.903 44.2806C106.903 44.2806 109.085 46.9548 109.725 50.2524C110.365 53.5501 110.791 57.2415 110.578 58.8329C110.348 60.5556 109.872 62.7212 109.872 62.7212L114.023 65.0017C114.023 65.0017 114.68 64.4438 114.958 62.2454C115.139 60.8509 115.073 56.4868 114.63 52.4509C114.335 49.711 113.777 48.7759 113.777 48.7759L108.576 38.8173L109.626 36.1431L111.726 37.7673L114.105 42.1642L115.352 45.9541C115.352 45.9541 116.829 50.5314 116.829 54.7314C116.829 58.9314 114.778 62.8688 114.778 62.8688L112.366 65.9204C112.366 65.9204 111.841 68.5457 113.99 69.0211C116.139 69.4972 117.928 66.7079 119.142 63.6564C119.732 62.1798 120.766 59.2759 120.848 55.9946C120.946 52.5165 120.061 48.6118 119.093 44.9696C117.206 37.8822 113.236 35.6017 110.824 34.0267C108.396 32.4517 104.475 34.2892 104.475 34.2892Z" fill="#FBC11A"/>
<path d="M101.423 36.471C101.423 36.471 99.7338 36.9305 99.2253 37.8656C98.4704 39.2601 100.029 40.3101 100.751 41.1141C101.587 42.0656 103.31 44.5101 104.262 46.5773C105.361 48.9398 105.706 52.8937 105.738 55.0265C105.787 59.3906 104.327 61.9664 104.114 62.4258C103.901 62.9015 104.163 63.9515 105.476 64.1648C106.788 64.3781 108.216 61.9828 108.937 58.3898C109.889 53.7141 108.593 48.3656 108.101 46.725C107.018 43.1812 105.049 40.146 105.164 39.8343C105.263 39.5226 107.428 41.1469 109.266 45.7242C110.447 48.6773 111.136 51.0562 111.349 51.7124C111.776 53.0742 112.924 53.5828 113.81 52.8609C115.205 51.7124 114.073 47.332 112.481 43.5914C111.3 40.8187 109.052 37.9476 109.118 37.8C109.249 37.5374 111.989 38.7351 113.531 41.3437C114.893 43.657 115.615 46.1343 117.141 46.0359C118.666 45.9374 118.716 42.0328 116.435 38.7351C114.729 36.2578 111.628 34.371 110.578 33.9117C109.249 33.321 107.608 32.6648 106.099 33.3374C105.344 33.6656 104.984 34.3874 104.984 34.3874C104.984 34.3874 103.835 33.8788 102.358 34.6828C101.292 35.2734 101.423 36.471 101.423 36.471Z" fill="#FDDD9C"/>
<path d="M100.701 63.115C100.439 62.9017 98.2401 62.2782 97.7155 63.64C97.1901 65.0017 96.895 67.955 97.6662 71.6789C98.8802 77.569 102.046 85.7719 103.08 91.793C104.753 101.555 103.146 105.968 103.441 106.821C103.917 108.134 105.59 108.085 106.115 106.87C106.591 105.771 106.952 103.244 107.001 99.3564C107.067 94.205 106.378 88.955 105.213 85.2303C104.065 81.5064 102.113 74.862 101.227 70.9409C100.225 66.5438 100.701 63.115 100.701 63.115Z" fill="#FDDD9C"/>
</svg>
