<svg width="200" height="200" viewBox="0 0 200 200" fill="none" xmlns="http://www.w3.org/2000/svg">
<path d="M176.874 105.968C176.874 97.3298 169.873 90.3278 161.235 90.3278C160.671 90.3278 160.114 90.3596 159.568 90.4219C156.042 90.8219 152.522 89.7729 150.144 87.1391C146.71 83.3351 141.74 80.9437 136.212 80.9437C135.006 80.9437 133.827 81.0596 132.686 81.2795C128.828 82.0232 124.947 80.6457 122.62 77.4815C115.795 68.2046 104.823 62.1766 92.421 62.1766C81.123 62.1766 71.0157 67.1848 64.1425 75.0894C61.6557 77.9497 57.8228 79.1053 54.107 78.3596C52.3366 78.0046 50.5069 77.8166 48.6311 77.8166C33.0836 77.8166 20.4805 90.4199 20.4805 105.967" fill="white"/>
<path d="M161.234 90.3284C160.67 90.3284 160.114 90.3609 159.567 90.4225C156.042 90.8231 152.521 89.7735 150.144 87.1404C146.71 83.3357 141.74 80.945 136.211 80.945C135.005 80.945 133.827 81.0602 132.686 81.2801C128.828 82.0238 124.948 80.6463 122.619 77.4827C115.794 68.2059 104.822 62.1772 92.4211 62.1772C88.2641 62.1772 84.2688 62.8577 80.5356 64.1086C87.939 66.588 94.3092 71.3165 98.8462 77.4827C101.175 80.6463 105.056 82.0238 108.912 81.2801C110.054 81.0602 111.232 80.945 112.438 80.945C117.967 80.945 122.936 83.3364 126.371 87.1404C128.748 89.7741 132.269 90.8231 135.795 90.4225C136.341 90.3609 136.897 90.3284 137.461 90.3284C146.099 90.3284 153.101 97.3304 153.101 105.968H176.875C176.873 97.3304 169.871 90.3284 161.234 90.3284Z" fill="#F6F6F6"/>
<path d="M177.686 22.6507L181.992 26.9561L195.261 13.6865L190.956 9.38098L177.686 22.6507Z" fill="#FF1D25"/>
<path d="M171.062 29.1668L175.485 33.5899L179.791 29.2844L175.367 24.8613L171.062 29.1668Z" fill="#FBB03B"/>
<path d="M121.543 78.7954L125.848 83.1007L173.146 35.8034L168.84 31.4979L121.543 78.7954Z" fill="#FF1D25"/>
<path d="M168.301 13.2711L172.607 17.5765L185.877 4.30692L181.571 0.00146484L168.301 13.2711Z" fill="#FF1D25"/>
<path d="M161.677 19.7785L166.1 24.2016L170.405 19.8961L165.982 15.473L161.677 19.7785Z" fill="#FBB03B"/>
<path d="M112.156 69.4125L116.462 73.7178L163.759 26.4205L159.454 22.1151L112.156 69.4125Z" fill="#FF1D25"/>
<path d="M189.386 106.044C189.386 155.975 148.774 196.752 98.6777 196.752C48.5812 196.752 7.96924 155.975 7.96924 106.044H189.386Z" fill="#C7B299"/>
<path d="M180.002 106.045C180.002 154.351 141.901 194.153 93.9854 196.595C95.539 196.674 97.1032 196.734 98.6774 196.734C148.774 196.734 189.385 155.975 189.385 106.044H180.002V106.045Z" fill="#D2C1AD"/>
<path d="M15.7888 106.045C15.7888 155.975 53.8893 194.153 101.805 196.595C100.251 196.674 98.6868 196.734 97.1133 196.734C47.0165 196.734 6.40527 155.975 6.40527 106.044H15.7888V106.045Z" fill="#998675"/>
<path d="M189.386 106.373H7.96924V118.884H189.386V106.373Z" fill="#FF4A51"/>
<path d="M154.978 106.373H7.96924V118.884H154.978V106.373Z" fill="#FF1D25"/>
<path d="M45.5018 106.373H7.96924V118.884H45.5018V106.373Z" fill="#B20209"/>
<path d="M164.274 115.786H35.5923V121.875H164.274V115.786Z" fill="black"/>
<path d="M101.76 125.123H95.6709V131.212H101.76V125.123Z" fill="white"/>
<path d="M92.8292 125.123H86.3345V131.212H92.8292V125.123Z" fill="white"/>
<path d="M111.097 125.123H104.602V131.212H111.097V125.123Z" fill="white"/>
<path d="M42.0871 90.2125H35.5923V96.3013H42.0871V90.2125Z" fill="black"/>
<path d="M51.8296 84.5292H45.7407V90.6179H51.8296V84.5292Z" fill="black"/>
<path d="M61.167 93.4602H55.0781V99.5489H61.167V93.4602Z" fill="black"/>
<path d="M70.5028 84.5292H64.0083V90.6179H70.5028V84.5292Z" fill="black"/>
<path d="M79.8399 71.5398H73.7505V77.6285H79.8399V71.5398Z" fill="black"/>
<path d="M98.5119 71.5398H92.8291V77.6285H98.5119V71.5398Z" fill="black"/>
<path d="M79.8399 93.4602H73.7505V99.5489H79.8399V93.4602Z" fill="black"/>
<path d="M95.671 84.5292H89.1763V90.6179H95.671V84.5292Z" fill="black"/>
<path d="M114.75 87.7769H108.255V93.8656H114.75V87.7769Z" fill="black"/>
<path d="M120.434 93.4602H114.75V99.5489H120.434V93.4602Z" fill="black"/>
<path d="M136.67 93.4602H130.175V99.5489H136.67V93.4602Z" fill="black"/>
<path d="M142.354 87.7769H136.671V93.8656H142.354V87.7769Z" fill="black"/>
<path d="M179.713 103.203C178.374 94.2073 170.598 87.2834 161.235 87.2834C160.564 87.2834 159.888 87.3219 159.225 87.3973C156.491 87.7073 154.003 86.8709 152.405 85.0993C148.274 80.5238 142.372 77.8993 136.212 77.8993C134.835 77.8993 133.455 78.0311 132.11 78.2907C129.349 78.8225 126.651 77.8225 125.072 75.6775C117.45 65.3179 105.243 59.1324 92.422 59.1324C80.7042 59.1324 69.5598 64.2205 61.8466 73.0914C60.1239 75.0722 57.4543 75.9258 54.7073 75.3748C52.7139 74.9742 50.6697 74.7715 48.6317 74.7715C32.3628 74.7715 18.9705 87.2927 17.5662 103.203H4.74072V106.248C4.74072 157.942 46.816 200 98.5114 200C150.207 200 192.282 157.943 192.282 106.248V103.203L179.713 103.203ZM24.3605 99.5497H30.3143V93.4609H26.8763C31.2178 85.9384 39.34 80.8609 48.6313 80.8609C50.2673 80.8609 51.908 81.0238 53.5085 81.3457C58.3555 82.3185 63.3104 80.6861 66.4406 77.0874C70.8969 71.9622 76.6995 68.3245 83.085 66.5185V71.5397H89.1737V65.4511H88.4797C89.7816 65.3003 91.0962 65.2218 92.4207 65.2218C99.7154 65.2218 106.599 67.4543 112.327 71.5397H111.094V77.6291H117.183V75.7437C118.242 76.8477 119.24 78.0278 120.166 79.2867C123.152 83.3424 128.17 85.251 133.262 84.2695C134.228 84.0834 135.22 83.9894 136.211 83.9894C140.651 83.9894 144.905 85.8815 147.884 89.1801C150.815 92.4278 155.201 93.9828 159.912 93.4477C160.347 93.398 160.792 93.3728 161.234 93.3728C163.523 93.3728 165.668 93.9894 167.519 95.0609V99.5503H172.065C172.731 100.669 173.226 101.898 173.519 103.203H155.341V99.9563H148.847V103.203H95.6704V99.9563H89.175V103.203H23.6813C23.8187 101.956 24.0469 100.736 24.3605 99.5497ZM98.6783 193.911C55.6722 193.911 19.803 162.785 12.4125 121.876H30.3147V115.787H11.53C11.2972 113.644 11.1417 111.478 11.0664 109.293H186.289C186.214 111.479 186.058 113.645 185.825 115.787H167.52V121.876H184.943C177.553 162.785 141.684 193.911 98.6783 193.911Z" fill="black"/>
</svg>
