<svg width="200" height="200" viewBox="0 0 200 200" fill="none" xmlns="http://www.w3.org/2000/svg">
<path d="M188.797 123.094C187.234 126.391 165.953 144.672 152.656 156.141C139.36 167.61 124.234 177.687 124.234 177.687L112.547 177L114.61 79.5779L186.813 103.187C186.813 103.187 188.969 104.641 189.203 108.078C189.422 111.516 190.11 120.328 188.797 123.094Z" fill="#D46F1E"/>
<path d="M19.0004 127.719C17.6254 127.953 15.1098 128.172 14.1879 133.219C13.2661 138.266 14.2036 148.453 17.8754 152.125C25.7036 159.953 36.3754 162.406 44.6723 163.25C52.0161 164 56.2036 163.281 58.2504 164.453C61.8129 166.516 61.8911 170.656 71.1565 176.047C78.1565 180.125 90.3444 183.953 98.8128 183.953C112.906 183.953 124.203 177.687 124.203 177.687L123.969 158.203L115.719 113.5L19.0004 127.719Z" fill="#E48216"/>
<path d="M28.4064 144.453C43.8596 150.344 63.0159 148.125 63.0159 148.125C63.0159 148.125 67.3754 157.75 82.7349 162.797C98.0937 167.844 116.891 165.313 129.047 156.844C141.203 148.375 162.063 128.875 169.156 122.922C176.25 116.968 186.125 108.015 186.344 105.734C186.563 103.453 146.688 72.25 146.688 72.25C146.688 72.25 21.2033 129.406 18.4846 131.172C16.4533 132.515 18.7814 140.781 28.4064 144.453Z" fill="#FADFB1"/>
<path d="M23.125 116.719C23.125 116.719 15.1094 117.172 15.1094 122.672C15.1094 128.172 18.0938 132.766 25.6563 136.203C33.2188 139.641 49.5 144 62.3282 146.984C75.3284 150 95.1094 161.203 106.797 162.344C118.203 163.469 127.203 153.625 132.469 148.813C137.735 144 163.875 123.828 169.828 117.86C175.782 111.906 188.39 98.3747 188.39 98.3747L102.203 66.969L23.125 116.719Z" fill="#EC8B7A"/>
<path d="M29.7187 125.047C29.7187 125.047 26.5624 124.906 24.5468 124.469C22.5311 124.032 18.9374 122.594 19.3749 124.187C19.8124 125.782 23.1874 129.125 29.7187 132.094C36.7655 135.282 45.8905 135.891 45.7655 135.594C45.7655 135.594 50.3905 139.266 55.578 140.922C61.9061 142.937 68.5158 144.829 73.531 145.266C78.2968 145.687 79.1563 144.735 77.4373 143C75.7189 141.266 71.1094 138.406 71.1094 138.406L46.6718 123.891L29.7187 125.047Z" fill="#D45E51"/>
<path d="M83.6246 146.313C83.4366 147.937 90.9524 151.922 96.4214 154.219C101.89 156.516 111.483 159.516 110.937 152.641C110.562 147.937 104.656 147.422 97.9992 146.75C90.9992 146.047 83.7802 144.985 83.6246 146.313Z" fill="#D45E51"/>
<path d="M19.7966 89.969C19.7966 89.969 12.1716 104.344 9.59352 103.766C7.01542 103.187 5.85915 101.469 4.7029 102.906C3.54665 104.344 3.40602 115.266 9.45289 117C15.4998 118.734 16.3123 116.625 19.9061 118.203C23.4998 119.781 28.1092 122.406 28.1092 122.406C28.1092 122.406 25.2966 124.844 25.7185 125.563C26.1404 126.281 30.7185 128.531 32.8748 130.547C35.0311 132.563 35.4373 134.781 45.2185 136.36C54.9998 137.937 57.3279 137.828 60.9217 137.406C64.5157 136.984 65.953 135.25 65.953 135.25C65.953 135.25 71.1245 142.156 76.2967 142.437C81.4688 142.719 82.9062 141 84.6404 141C86.3745 141 83.7809 142.719 89.234 142.719C94.6872 142.719 100.937 143.219 108.187 145.187C113.297 146.578 118.125 151.766 121.437 152.922C124.75 154.078 129.625 153.063 131.063 151.484C132.5 149.906 132.469 146.11 135.187 143.25C137.906 140.391 145 136.75 147.437 134.156C149.875 131.563 151.469 123.453 151.469 123.453C151.469 123.453 154.781 126.047 157.656 125.469C160.531 124.891 163.844 119.86 166.421 119.437C169 119.016 171.594 118.281 174.047 115.844C176.5 113.406 175.484 106.937 177.063 105.781C178.64 104.625 184.687 108.219 187.844 107.36C191 106.5 194.031 101.891 193.313 98.8754C192.594 95.8595 191.875 95.4222 191.875 93.7032C191.875 91.9842 193.75 89.1095 191.437 86.2342C189.125 83.3595 149.734 67.6874 149.734 67.6874L19.7966 89.969Z" fill="#B7D019"/>
<path d="M32.8745 113.828C32.8745 113.828 30.9995 118 31.7183 118.86C32.4371 119.719 43.0777 128.485 45.6558 128.782C48.2339 129.078 66.9368 128.344 66.9368 128.344L58.8902 113.828H32.8745Z" fill="#96A819"/>
<path d="M100.438 116.422C100.438 116.422 92.2502 134.39 93.2502 135.969C94.2502 137.547 102.313 137.844 109.203 139.703C116.094 141.563 118.11 142.578 120.422 142.437C122.734 142.297 132.203 136.969 132.36 135.25C132.516 133.532 125.031 124.906 125.031 124.906L100.438 116.422Z" fill="#96A819"/>
<path d="M148.016 110.953L145.141 118.421C145.141 118.421 158.516 119.281 164.547 116.406C170.579 113.531 174.953 103.109 176.829 99.9531C179.422 95.6094 183.079 91.8594 182.781 90.281C182.484 88.7031 173.313 82.6246 173.313 82.6246L148.016 110.953Z" fill="#96A819"/>
<path d="M149.172 112.531C149.172 112.531 134.656 116.266 134.359 117.125C134.063 117.984 120.844 132.5 120.844 132.5C120.844 132.5 130.625 137.25 141.547 131.063C152.469 124.906 149.172 112.531 149.172 112.531Z" fill="#DC0D2A"/>
<path d="M184.672 69.7031C184.672 69.7031 192.579 71.8595 191.282 81.6405C189.767 93.0778 170.438 92.5626 170.438 92.5626C170.438 92.5626 165.267 78.7658 166.126 78.0468C166.985 77.3278 184.672 69.7031 184.672 69.7031Z" fill="#DC0D2A"/>
<path d="M69.9685 113.687L58.3281 119.719C58.3281 119.719 60.2031 131.937 79.6096 135.25C99.0153 138.563 109.797 121.735 109.797 121.735L69.9685 113.687Z" fill="#DC0D2A"/>
<path d="M35.0311 101.187L22.2342 101.766C22.2342 101.766 21.7655 110.063 28.4217 114.844C36.7186 120.797 48.828 118 48.828 118L35.0311 101.187Z" fill="#DC0D2A"/>
<path d="M58.7495 98.5936L34.312 104.782C34.312 104.782 46.6714 121.172 51.562 121.594C56.4526 122.016 80.5931 117 80.5931 117L58.7495 98.5936Z" fill="#FEDF64"/>
<path d="M95.5474 123.313C95.5474 123.313 110.657 135.516 117.547 134.953C122.86 134.516 129.578 125.203 138.36 120.453C147.141 115.703 160.407 112.219 162.688 110.516C167.204 107.14 173.469 88.6721 176.485 84.3595C179.501 80.0468 186.985 70.1253 187.125 68.5468C187.266 66.969 185.828 61.9375 185.828 61.9375L128.751 107.219L95.5474 123.313Z" fill="#FEDF64"/>
<path d="M107.766 121.016C108.484 120.875 122.421 122.453 122.421 122.453C122.421 122.453 133.687 113.734 150.937 99.5C168.187 85.2658 184.266 69.8905 187.859 63.6405C188.89 61.8594 189.343 50.8906 189.39 48.1406C189.484 43.3594 186.828 42.4688 186.828 42.4688L109.328 98.0158L107.766 121.016Z" fill="#D46F1E"/>
<path d="M122.578 101.031C122.578 102.468 123.531 121.531 122.437 122.453C119.844 124.609 97.1404 130.937 77.8746 122.171C59.359 113.75 56.1559 106.218 56.1559 106.218C56.1559 106.218 32.6871 108.89 18.7809 101.047C9.8746 96.0152 9.43706 86.2341 9.5777 81.2031C9.71833 76.1715 10.2964 71.4215 12.3121 69.2652C14.3277 67.1095 40.6402 45.1248 46.2496 40.6717C51.859 36.2186 76.8588 17.8123 80.7493 17.0936C84.6404 16.3748 117.984 22.8436 129.187 25.4373C140.39 28.0311 173.031 36.4998 178.64 38.6561C184.249 40.8123 187.702 42.1092 187.844 43.6873C187.984 45.2655 186.265 47.7186 184.249 49.4373C182.234 51.1561 138.968 48.8592 137.828 56.7655C136.687 64.6715 122.578 101.031 122.578 101.031Z" fill="#E38211"/>
<path d="M81.4682 20.7502C77.1094 21.5158 52.531 40.8908 45.5935 46.469C38.656 52.0471 20.7185 66.6095 17.6716 69.3127C14.6247 72.0159 11.2341 82 26.1247 87.75C41.0154 93.5 61.8278 90.7969 61.8278 90.7969C61.8278 90.7969 69.2809 105.344 87.0467 107.219C104.813 109.094 117 108.406 124.781 102.141C132.563 95.8754 158.453 73.8754 164.375 68.469C170.297 63.0471 185.484 49.5314 185.187 47.6564C184.344 42.2346 142.718 33.1096 124.953 29.0471C108.937 25.3752 85.3594 20.0783 81.4682 20.7502Z" fill="#FADFB1"/>
</svg>
